<svg width="128" height="28" viewBox="0 0 128 28" fill="none" xmlns="http://www.w3.org/2000/svg">
<path d="M13.2344 0.671875L21.4375 22H17.4375L15.3906 16.3281H6.95312L4.875 22H0.984375L9.23438 0.671875H13.2344ZM14.4062 13.4844L11.1719 4.60938L7.92188 13.4844H14.4062ZM36.4219 17.1562C36.2135 18.0208 35.8698 18.8021 35.3906 19.5C34.0573 21.4479 32.0729 22.4219 29.4375 22.4219C27.0417 22.4219 25.151 21.6354 23.7656 20.0625C22.4635 18.5729 21.8125 16.7031 21.8125 14.4531C21.8125 12.099 22.4792 10.1406 23.8125 8.57812C25.2188 6.93229 27.0469 6.10938 29.2969 6.10938C31.1302 6.10938 32.6927 6.66146 33.9844 7.76562C35.776 9.29688 36.6615 11.7396 36.6406 15.0938H25.2031C25.2344 15.9375 25.3594 16.6458 25.5781 17.2188C26.2552 19.0104 27.5573 19.9062 29.4844 19.9062C31.276 19.9062 32.5052 18.9896 33.1719 17.1562H36.4219ZM33.2188 12.8125C33.1458 11.8958 32.9219 11.1198 32.5469 10.4844C31.7969 9.24479 30.7031 8.625 29.2656 8.625C28.151 8.625 27.25 8.98438 26.5625 9.70312C25.875 10.4219 25.4427 11.4583 25.2656 12.8125H33.2188ZM53.6406 6.53125V27.7188H50.2344V19.9375C49.0781 21.5938 47.401 22.4219 45.2031 22.4219C43.099 22.4219 41.4115 21.6562 40.1406 20.125C38.9531 18.6875 38.3594 16.7552 38.3594 14.3281C38.3594 11.7448 39.0365 9.70312 40.3906 8.20312C41.6719 6.80729 43.349 6.10938 45.4219 6.10938C47.7865 6.10938 49.4583 6.93229 50.4375 8.57812V6.53125H53.6406ZM46.0938 8.84375C44.7917 8.84375 43.7656 9.30729 43.0156 10.2344C42.2135 11.2344 41.8125 12.6094 41.8125 14.3594C41.8125 16.0365 42.2031 17.3542 42.9844 18.3125C43.7344 19.2292 44.7604 19.6875 46.0625 19.6875C47.3333 19.6875 48.349 19.2448 49.1094 18.3594C49.9427 17.401 50.3594 16.0156 50.3594 14.2031C50.3594 12.4531 49.9688 11.1302 49.1875 10.2344C48.4167 9.33854 47.3854 8.875 46.0938 8.84375ZM70.4688 6.53125V22H67.2656V19.7031C66.0365 21.5156 64.3281 22.4219 62.1406 22.4219C60.2969 22.4219 58.8906 21.8333 57.9219 20.6562C57.224 19.8021 56.875 18.401 56.875 16.4531V6.53125H60.2812V15.3594C60.2812 16.6094 60.3646 17.4792 60.5312 17.9688C60.875 19.0312 61.7812 19.5625 63.25 19.5625C64.75 19.5625 65.849 18.901 66.5469 17.5781C66.8906 16.9323 67.0625 15.776 67.0625 14.1094V6.53125H70.4688ZM76.8906 0.671875V3.92188H73.4844V0.671875H76.8906ZM76.8906 6.53125V22H73.4844V6.53125H76.8906ZM83.125 6.53125V8.8125C84.375 7 86.0938 6.09375 88.2812 6.09375C89.6146 6.09375 90.75 6.4375 91.6875 7.125C92.375 7.625 92.849 8.23958 93.1094 8.96875C93.3802 9.69792 93.5156 10.7552 93.5156 12.1406V22H90.1094V13C90.1094 11.8229 90.0156 10.9792 89.8281 10.4688C89.651 10 89.3229 9.63021 88.8438 9.35938C88.3646 9.08854 87.8021 8.95312 87.1562 8.95312C86.4062 8.95312 85.7292 9.13542 85.125 9.5C84.5312 9.85417 84.0938 10.3385 83.8125 10.9531C83.4896 11.651 83.3281 12.75 83.3281 14.25V22H79.9219V6.53125H83.125ZM103.781 6.10938C106.094 6.10938 107.964 6.86458 109.391 8.375C110.766 9.82292 111.453 11.7865 111.453 14.2656C111.453 16.901 110.677 18.9583 109.125 20.4375C107.74 21.7604 105.922 22.4219 103.672 22.4219C101.182 22.4219 99.2396 21.6406 97.8438 20.0781C96.5104 18.5781 95.8438 16.6458 95.8438 14.2812C95.8438 11.9688 96.4688 10.0885 97.7188 8.64062C99.1771 6.95312 101.198 6.10938 103.781 6.10938ZM103.719 8.84375C102.333 8.84375 101.25 9.32812 100.469 10.2969C99.6875 11.2552 99.2969 12.5833 99.2969 14.2812C99.2969 16.0521 99.7083 17.4062 100.531 18.3438C101.323 19.2396 102.38 19.6875 103.703 19.6875C104.911 19.6875 105.885 19.2917 106.625 18.5C107.542 17.5312 108 16.1094 108 14.2344C108 12.5052 107.599 11.1719 106.797 10.2344C106.047 9.33854 105.021 8.875 103.719 8.84375ZM126.609 6.53125L121.297 13.6875L127.266 22H123.109L119.266 16.3438L115.422 22H111.406L117.219 13.8438L111.875 6.53125H116.016L119.312 11.2031L122.656 6.53125H126.609Z" fill="white"/>
</svg>
