<svg width="32" height="32" viewBox="0 0 32 32" fill="none" xmlns="http://www.w3.org/2000/svg">
<path d="M8.66675 9.33301C8.63274 10.9955 8.74742 12.6576 9.00942 14.2997C9.50475 16.4883 11.6594 18.7723 12.0501 19.7783C14.1661 17.2717 21.5481 14.4397 26.0847 16.819C31.2847 20.1763 30.8454 25.819 27.4534 28.2763C26.4067 29.0337 23.1201 30.543 18.7101 30.653C15.2094 30.741 12.6834 30.3777 11.5828 29.827C9.76675 30.0597 5.92942 30.033 4.36208 28.437C3.28808 27.343 1.08942 21.0623 2.41008 14.363C3.80542 7.28767 6.13742 1.33301 8.65609 1.33301C9.88942 1.33301 11.8948 1.37367 12.8308 2.13301C13.7668 2.89234 13.0628 5.24967 12.8001 5.46634C13.1154 5.71913 13.3237 6.08164 13.3833 6.48137C13.4428 6.8811 13.3493 7.28859 13.1214 7.62234C12.6354 8.43434 10.9168 9.28167 10.2674 9.44501C9.73196 9.52177 9.1863 9.48359 8.66675 9.33301Z" fill="#C5583F"/>
<path d="M18.0662 25.0279C17.1103 25.0426 16.1578 24.9099 15.2422 24.6346C15.0835 24.5731 14.9543 24.4532 14.8811 24.2995C14.808 24.1458 14.7964 23.9699 14.8487 23.8079C14.9011 23.646 15.0134 23.5101 15.1627 23.4283C15.3119 23.3465 15.4869 23.3249 15.6516 23.3679C18.6209 24.3239 23.1562 23.0006 24.2769 22.1859C24.4174 22.0785 24.5948 22.0313 24.7701 22.0547C24.9453 22.0781 25.1042 22.1701 25.2116 22.3106C25.319 22.4511 25.3662 22.6285 25.3428 22.8037C25.3194 22.979 25.2274 23.1378 25.0869 23.2453L25.0609 23.2639C23.9562 24.0666 20.9249 25.0279 18.0662 25.0279Z" fill="#FCF6F5"/>
</svg>
