<svg width="32" height="32" viewBox="0 0 32 32" fill="none" xmlns="http://www.w3.org/2000/svg">
<path d="M30.668 28.6663H1.33464C0.965969 28.6663 0.667969 28.3683 0.667969 27.9997C0.667969 27.631 0.965969 27.333 1.33464 27.333H30.668C31.0366 27.333 31.3346 27.631 31.3346 27.9997C31.3346 28.3683 31.0366 28.6663 30.668 28.6663Z" fill="#602B1E"/>
<path d="M8.66797 11.333H3.33464C2.96597 11.333 2.66797 11.631 2.66797 11.9997V23.9997C2.66797 24.3683 2.96597 24.6663 3.33464 24.6663H8.66797C9.03664 24.6663 9.33464 24.3683 9.33464 23.9997V11.9997C9.33464 11.631 9.03664 11.333 8.66797 11.333Z" fill="#F9EDEB"/>
<path d="M18.668 3.33301H13.3346C12.966 3.33301 12.668 3.63101 12.668 3.99967V23.9997C12.668 24.3683 12.966 24.6663 13.3346 24.6663H18.668C19.0366 24.6663 19.3346 24.3683 19.3346 23.9997V3.99967C19.3346 3.63101 19.0366 3.33301 18.668 3.33301Z" fill="#C5583F"/>
<path d="M28.668 16.666H23.3346C22.966 16.666 22.668 16.964 22.668 17.3327V23.9993C22.668 24.368 22.966 24.666 23.3346 24.666H28.668C29.0366 24.666 29.3346 24.368 29.3346 23.9993V17.3327C29.3346 16.964 29.0366 16.666 28.668 16.666Z" fill="#F9EDEB"/>
</svg>
