<svg width="96" height="96" viewBox="0 0 96 96" fill="none" xmlns="http://www.w3.org/2000/svg">
<path fill-rule="evenodd" clip-rule="evenodd" d="M71.9677 36.577V43.2594C71.9677 43.6572 71.8096 44.0387 71.5283 44.32C71.247 44.6013 70.8655 44.7594 70.4677 44.7594C70.0698 44.7594 69.6883 44.6013 69.407 44.32C69.1257 44.0387 68.9677 43.6572 68.9677 43.2594V37.7693H55.0195C54.6217 37.7693 54.2402 37.6113 53.9589 37.33C53.6776 37.0487 53.5195 36.6672 53.5195 36.2693V22.3194H28.3477V76.4994H49.6027C50.0005 76.4994 50.382 76.6574 50.6633 76.9387C50.9446 77.22 51.1027 77.6015 51.1027 77.9994C51.1027 78.3972 50.9446 78.7787 50.6633 79.06C50.382 79.3413 50.0005 79.4994 49.6027 79.4994H26.8477C26.4498 79.4994 26.0683 79.3413 25.787 79.06C25.5057 78.7787 25.3477 78.3972 25.3477 77.9994V20.8194C25.3477 20.4215 25.5057 20.04 25.787 19.7587C26.0683 19.4774 26.4498 19.3194 26.8477 19.3194H55.0109C55.0137 19.3193 55.0166 19.3193 55.0195 19.3193C55.0207 19.3193 55.0218 19.3193 55.0229 19.3193C55.2186 19.3189 55.4124 19.3567 55.5935 19.4307C55.7763 19.5054 55.9425 19.6153 56.0827 19.7544L71.392 35.0637C71.4512 35.1076 71.5075 35.156 71.5602 35.2087C71.8415 35.49 71.9995 35.8715 71.9995 36.2693C71.9995 36.3735 71.9887 36.4765 71.9677 36.577ZM56.5195 24.4362V34.7693H66.8526L56.5195 24.4362Z" fill="#FEF9D7"/>
<path d="M42.9259 60.3145H35.3359C35.137 60.3145 34.9463 60.2354 34.8056 60.0948C34.665 59.9541 34.5859 59.7634 34.5859 59.5645C34.5859 59.3655 34.665 59.1748 34.8056 59.0341C34.9463 58.8935 35.137 58.8145 35.3359 58.8145H42.9259C43.1249 58.8145 43.3156 58.8935 43.4563 59.0341C43.5969 59.1748 43.6759 59.3655 43.6759 59.5645C43.6759 59.7634 43.5969 59.9541 43.4563 60.0948C43.3156 60.2354 43.1249 60.3145 42.9259 60.3145Z" fill="#FEF9D7" stroke="#FEF9D7" stroke-width="1.5"/>
<path d="M42.9259 69.375H35.3359C35.137 69.375 34.9463 69.296 34.8056 69.1553C34.665 69.0147 34.5859 68.8239 34.5859 68.625C34.5859 68.4261 34.665 68.2353 34.8056 68.0947C34.9463 67.954 35.137 67.875 35.3359 67.875H42.9259C43.1249 67.875 43.3156 67.954 43.4563 68.0947C43.5969 68.2353 43.6759 68.4261 43.6759 68.625C43.6759 68.8239 43.5969 69.0147 43.4563 69.1553C43.3156 69.296 43.1249 69.375 42.9259 69.375Z" fill="#FEF9D7" stroke="#FEF9D7" stroke-width="1.5"/>
<path d="M50.4259 51.2402H35.3359C35.137 51.2402 34.9463 51.1612 34.8056 51.0206C34.665 50.8799 34.5859 50.6891 34.5859 50.4902C34.5859 50.2913 34.665 50.1006 34.8056 49.9599C34.9463 49.8193 35.137 49.7402 35.3359 49.7402H50.4259C50.6249 49.7402 50.8156 49.8193 50.9563 49.9599C51.0969 50.1006 51.1759 50.2913 51.1759 50.4902C51.1759 50.6891 51.0969 50.8799 50.9563 51.0206C50.8156 51.1612 50.6249 51.2402 50.4259 51.2402Z" fill="#FEF9D7" stroke="#FEF9D7" stroke-width="1.5"/>
<path d="M45.4759 42.1797H35.3359C35.137 42.1797 34.9463 42.1007 34.8056 41.96C34.665 41.8194 34.5859 41.6286 34.5859 41.4297C34.5859 41.2308 34.665 41.04 34.8056 40.8994C34.9463 40.7587 35.137 40.6797 35.3359 40.6797H45.4759C45.6749 40.6797 45.8656 40.7587 46.0063 40.8994C46.1469 41.04 46.2259 41.2308 46.2259 41.4297C46.2259 41.6286 46.1469 41.8194 46.0063 41.96C45.8656 42.1007 45.6748 42.1797 45.4759 42.1797Z" fill="#FEF9D7" stroke="#FEF9D7" stroke-width="1.5"/>
<path d="M43.8409 33.1055H35.3359C35.137 33.1055 34.9463 33.0265 34.8056 32.8858C34.665 32.7451 34.5859 32.5544 34.5859 32.3555C34.5859 32.1566 34.665 31.9658 34.8056 31.8251C34.9463 31.6845 35.137 31.6055 35.3359 31.6055H43.8409C44.0398 31.6055 44.2306 31.6845 44.3713 31.8251C44.5119 31.9658 44.5909 32.1566 44.5909 32.3555C44.5909 32.5544 44.5119 32.7451 44.3713 32.8858C44.2306 33.0265 44.0399 33.1055 43.8409 33.1055Z" fill="#FEF9D7" stroke="#FEF9D7" stroke-width="1.5"/>
<path fill-rule="evenodd" clip-rule="evenodd" d="M53.6351 82.104C57.2119 84.4939 61.417 85.7695 65.7188 85.7695C71.486 85.7656 77.0159 83.4728 81.0939 79.3947C85.172 75.3167 87.4648 69.7868 87.4688 64.0195C87.4688 59.7178 86.1931 55.5127 83.8032 51.9359C81.4133 48.3591 78.0164 45.5714 74.0421 43.9252C70.0678 42.279 65.6946 41.8482 61.4755 42.6875C57.2565 43.5267 53.381 45.5982 50.3392 48.64C47.2974 51.6818 45.2259 55.5572 44.3867 59.7763C43.5475 63.9954 43.9782 68.3686 45.6244 72.3429C47.2706 76.3172 50.0583 79.7141 53.6351 82.104ZM55.3018 48.4295C58.3852 46.3692 62.0104 45.2695 65.7188 45.2695C70.6891 45.2775 75.4537 47.2555 78.9683 50.7701C80.2827 52.0845 81.3822 53.5738 82.2442 55.1833H71.9988L69.7704 52.934C69.8565 52.7828 69.9333 52.6261 70.0003 52.4648C70.2131 51.9524 70.3226 51.4031 70.3226 50.8483C70.3226 50.0153 70.0757 49.2009 69.6133 48.5081C69.1508 47.8153 68.4933 47.275 67.724 46.9556C66.9547 46.6361 66.108 46.5518 65.2908 46.7132C64.4736 46.8746 63.7225 47.2746 63.1324 47.8626C62.5424 48.4505 62.1397 49.2002 61.9754 50.0168C61.8111 50.8335 61.8924 51.6805 62.2091 52.4509C62.5259 53.2214 63.0638 53.8807 63.755 54.3456C64.4461 54.8106 65.2596 55.0603 66.0926 55.0633C66.5571 55.0649 67.018 54.9898 67.4569 54.8415L70.3488 57.7333C70.4877 57.8751 70.6534 57.9878 70.8362 58.0651C71.019 58.1423 71.2154 58.1825 71.4138 58.1833H83.5291C83.9903 59.5859 84.2872 61.0458 84.4076 62.5342H61.7677C61.6555 62.2394 61.51 61.9566 61.3329 61.6916C60.8698 60.9985 60.2115 60.4582 59.4413 60.1392C58.6711 59.8202 57.8236 59.7367 57.006 59.8994C56.1883 60.062 55.4373 60.4634 54.8478 61.0529C54.2583 61.6424 53.8569 62.3934 53.6943 63.2111C53.5316 64.0287 53.6151 64.8762 53.9341 65.6464C54.2532 66.4166 54.7934 67.0749 55.4865 67.538C56.1797 68.0012 56.9946 68.2484 57.8283 68.2484C58.3818 68.2484 58.9299 68.1393 59.4413 67.9275C59.9527 67.7157 60.4173 67.4052 60.8087 67.0138C61.2001 66.6224 61.5106 66.1578 61.7224 65.6464C61.7378 65.6092 61.7527 65.5718 61.767 65.5342H84.4075C84.2864 67.0285 83.9868 68.4987 83.5181 69.9141H71.4148C71.2174 69.9129 71.0217 69.9508 70.8389 70.0254C70.6562 70.1001 70.49 70.2101 70.3498 70.3491L67.4634 73.2355C66.7344 72.9661 65.9441 72.9031 65.1798 73.0551C64.3622 73.2178 63.6111 73.6192 63.0217 74.2087C62.4322 74.7981 62.0307 75.5492 61.8681 76.3668C61.7055 77.1844 61.7889 78.0319 62.108 78.8021C62.427 79.5723 62.9672 80.2306 63.6604 80.6938C64.3535 81.1569 65.1685 81.4041 66.0021 81.4041C67.12 81.4041 68.1921 80.96 68.9826 80.1696C69.773 79.3791 70.2171 78.307 70.2171 77.1891C70.2171 76.4919 70.0442 75.8079 69.7167 75.1972L71.9998 72.9141H82.2248C81.9445 73.4342 81.639 73.9423 81.3088 74.4365C79.2485 77.5199 76.3202 79.9231 72.8941 81.3423C69.468 82.7614 65.698 83.1327 62.0608 82.4093C58.4237 81.6858 55.0827 79.9 52.4605 77.2778C49.8383 74.6556 48.0525 71.3146 47.329 67.6775C46.6056 64.0403 46.9769 60.2703 48.396 56.8442C49.8152 53.4181 52.2184 50.4898 55.3018 48.4295ZM65.4217 49.8453C65.6195 49.71 65.8529 49.6362 66.0926 49.6333C66.2534 49.6313 66.413 49.6612 66.5621 49.7214C66.7113 49.7816 66.847 49.8708 66.9614 49.9838C67.0758 50.0968 67.1667 50.2314 67.2287 50.3798C67.2907 50.5282 67.3226 50.6875 67.3226 50.8483C67.3226 51.0879 67.2517 51.3222 67.1188 51.5217C66.986 51.7212 66.7971 51.8769 66.5759 51.9693C66.3548 52.0617 66.1113 52.0866 65.876 52.0409C65.6407 51.9952 65.4242 51.881 65.2537 51.7126C65.0832 51.5441 64.9663 51.3291 64.9178 51.0944C64.8692 50.8597 64.8912 50.6159 64.9808 50.3936C65.0705 50.1714 65.2239 49.9806 65.4217 49.8453ZM66.0021 75.9741C65.7618 75.9741 65.5269 76.0454 65.3271 76.1789C65.1273 76.3124 64.9716 76.5022 64.8796 76.7242C64.7876 76.9462 64.7636 77.1905 64.8105 77.4262C64.8573 77.6618 64.9731 77.8783 65.143 78.0483C65.3129 78.2182 65.5294 78.3339 65.7651 78.3808C66.0008 78.4277 66.2451 78.4036 66.4671 78.3116C66.6891 78.2197 66.8788 78.0639 67.0123 77.8641C67.1459 77.6643 67.2171 77.4294 67.2171 77.1891C67.2171 77.0296 67.1857 76.8716 67.1246 76.7242C67.0636 76.5768 66.9741 76.4428 66.8612 76.33C66.7484 76.2172 66.6145 76.1277 66.4671 76.0666C66.3197 76.0056 66.1617 75.9741 66.0021 75.9741ZM57.1533 63.0231C57.3531 62.8896 57.588 62.8184 57.8283 62.8184C58.1505 62.8184 58.4596 62.9464 58.6874 63.1742C58.9153 63.4021 59.0433 63.7111 59.0433 64.0334C59.0433 64.2737 58.972 64.5086 58.8385 64.7084C58.705 64.9082 58.5153 65.0639 58.2932 65.1559C58.0712 65.2478 57.8269 65.2719 57.5912 65.225C57.3556 65.1781 57.1391 65.0624 56.9691 64.8925C56.7992 64.7226 56.6835 64.5061 56.6366 64.2704C56.5897 64.0347 56.6138 63.7904 56.7058 63.5684C56.7977 63.3464 56.9535 63.1566 57.1533 63.0231Z" fill="#FEF9D7"/>
</svg>
