<svg width="96" height="96" viewBox="0 0 96 96" fill="none" xmlns="http://www.w3.org/2000/svg">
<path d="M19.3945 76.1992V76.9492H20.1445H32.1445H32.8945V76.1992V52.1992V51.4492H32.1445H20.1445H19.3945V52.1992V76.1992ZM33.6445 78.4492H18.6445C18.4456 78.4492 18.2549 78.3702 18.1142 78.2295C17.9735 78.0889 17.8945 77.8981 17.8945 77.6992V50.6992C17.8945 50.5003 17.9735 50.3095 18.1142 50.1689C18.2549 50.0282 18.4456 49.9492 18.6445 49.9492H33.6445C33.8434 49.9492 34.0342 50.0282 34.1749 50.1689C34.3155 50.3095 34.3945 50.5003 34.3945 50.6992V77.6992C34.3945 77.8981 34.3155 78.0889 34.1749 78.2295C34.0342 78.3702 33.8434 78.4492 33.6445 78.4492Z" fill="#FEF9D7" stroke="#FEF9D7" stroke-width="1.5"/>
<path d="M61.3828 76.1992V76.9492H62.1328H74.1328H74.8828V76.1992V64.1992V63.4492H74.1328H62.1328H61.3828V64.1992V76.1992ZM75.6328 78.4492H60.6328C60.4339 78.4492 60.2431 78.3702 60.1025 78.2295C59.9618 78.0889 59.8828 77.8981 59.8828 77.6992V62.6992C59.8828 62.5003 59.9618 62.3095 60.1025 62.1689C60.2431 62.0282 60.4339 61.9492 60.6328 61.9492H75.6328C75.8317 61.9492 76.0225 62.0282 76.1631 62.1689C76.3038 62.3095 76.3828 62.5003 76.3828 62.6992V77.6992C76.3828 77.8981 76.3038 78.0889 76.1631 78.2295C76.0225 78.3702 75.8317 78.4492 75.6328 78.4492Z" fill="#FEF9D7" stroke="#FEF9D7" stroke-width="1.5"/>
<path fill-rule="evenodd" clip-rule="evenodd" d="M39.6562 79.1992H54.6562C55.0541 79.1992 55.4356 79.0412 55.7169 78.7599C55.9982 78.4786 56.1562 78.097 56.1562 77.6992V51.7791C56.9222 52.5347 57.7616 53.2196 58.6652 53.8223C61.4669 55.6913 64.76 56.6872 68.1279 56.6843C72.6394 56.6763 76.9636 54.8796 80.1523 51.6881C83.341 48.4966 85.1339 44.1708 85.1379 39.6593C85.1379 36.2914 84.139 32.9992 82.2676 30.1991C80.3962 27.3991 77.7364 25.2169 74.6246 23.9288C71.5128 22.6407 68.0889 22.3044 64.786 22.9625C61.5232 23.6126 58.5233 25.2043 56.1562 27.5395V20.6992C56.1562 20.3014 55.9982 19.9199 55.7169 19.6386C55.4356 19.3573 55.0541 19.1992 54.6562 19.1992H39.6562C39.2584 19.1992 38.8769 19.3573 38.5956 19.6386C38.3143 19.9199 38.1562 20.3014 38.1562 20.6992V77.6992C38.1562 78.097 38.3143 78.4786 38.5956 78.7599C38.8769 79.0412 39.2584 79.1992 39.6562 79.1992ZM55.8743 32.8247C55.9341 32.7415 55.985 32.6526 56.0264 32.5596C57.0952 30.744 58.5639 29.185 60.3304 28.0067C62.6391 26.4667 65.3527 25.6463 68.1279 25.6493C71.8424 25.6532 75.4036 27.1306 78.0301 29.7571C80.6566 32.3836 82.1339 35.9448 82.1379 39.6593C82.1409 42.4344 81.3205 45.1481 79.7805 47.4568C78.2406 49.7655 76.0503 51.5654 73.487 52.6288C70.9236 53.6922 68.1024 53.9712 65.3804 53.4305C62.6585 52.8898 60.1581 51.5538 58.1957 49.5914C57.363 48.7587 56.6431 47.8291 56.0488 46.8268C55.9971 46.6976 55.9274 46.5756 55.8414 46.4647C55.1436 45.2036 54.6405 43.8357 54.3567 42.4067C53.816 39.6848 54.095 36.8636 55.1584 34.3002C55.3688 33.793 55.608 33.3005 55.8743 32.8247ZM53.1562 31.5261V22.1992H41.1562V76.1992H53.1562V47.7925C52.8732 47.2721 52.6167 46.7356 52.3882 46.1849C51.0973 43.0742 50.758 39.6506 51.4132 36.3471C51.7494 34.6521 52.3396 33.0278 53.1562 31.5261Z" fill="#FEF9D7"/>
<path fill-rule="evenodd" clip-rule="evenodd" d="M66.9014 32.3096V32.6398H65.1826L65.1622 32.6396H63.6622C63.3519 32.6396 63.0543 32.7629 62.8349 32.9823C62.6155 33.2018 62.4922 33.4993 62.4922 33.8096C62.4922 34.12 62.6155 34.4175 62.8349 34.637C63.0543 34.8564 63.3519 34.9796 63.6622 34.9796H63.9775V44.3401H63.6613C63.3719 44.3728 63.1047 44.5109 62.9106 44.7281C62.7166 44.9453 62.6094 45.2264 62.6094 45.5176C62.6094 45.8088 62.7166 46.0899 62.9106 46.307C63.1047 46.5242 63.3719 46.6624 63.6613 46.6951H65.1195C65.1338 46.6954 65.1482 46.6955 65.1625 46.6953H66.9014V46.9797C66.9053 47.2927 67.0314 47.5919 67.2527 47.8133C67.4741 48.0347 67.7733 48.1608 68.0864 48.1647C68.398 48.1607 68.6956 48.0341 68.9146 47.8123C69.1336 47.5905 69.2564 47.2914 69.2564 46.9797V46.6953H71.0125C72.0577 46.6321 73.0393 46.1723 73.757 45.4099C74.4747 44.6475 74.8744 43.6399 74.8744 42.5928C74.8744 41.5458 74.4747 40.5382 73.757 39.7757C73.5527 39.5587 73.3271 39.3662 73.0846 39.2004C73.2755 38.9446 73.4364 38.6668 73.5637 38.3723C73.786 37.8577 73.9007 37.303 73.9007 36.7423C73.9007 36.1817 73.786 35.627 73.5637 35.1123C73.3413 34.5977 73.016 34.1339 72.6078 33.7497C72.1996 33.3654 71.7171 33.0687 71.1899 32.8778C70.6628 32.687 70.1021 32.606 69.5425 32.6398H69.2564V32.3096C69.2564 31.9993 69.1331 31.7018 68.9137 31.4823C68.6943 31.2629 68.3967 31.1396 68.0864 31.1396C67.7747 31.1396 67.4755 31.2624 67.2537 31.4814C67.0319 31.7004 66.9053 31.998 66.9014 32.3096ZM68.4101 44.3403H71.0125C71.2556 44.3629 71.5007 44.3345 71.7322 44.2569C71.9637 44.1793 72.1765 44.0543 72.3569 43.8898C72.5373 43.7254 72.6814 43.5251 72.7801 43.3017C72.8787 43.0784 72.9296 42.837 72.9296 42.5928C72.9296 42.3487 72.8787 42.1072 72.7801 41.8839C72.6814 41.6606 72.5373 41.4603 72.3569 41.2958C72.1765 41.1314 71.9637 41.0063 71.7322 40.9288C71.5007 40.8512 71.2556 40.8228 71.0125 40.8453H70.0304C69.8711 40.8546 69.7111 40.8547 69.5511 40.8453H66.3325V44.3403H67.7606C67.8656 44.3103 67.9752 44.2947 68.0864 44.2947C68.1961 44.2947 68.3051 44.3101 68.4101 44.3403ZM69.5425 38.4898H66.3325V34.9798H69.5425C70.008 34.9798 70.4544 35.1647 70.7835 35.4939C71.1126 35.823 71.2975 36.2694 71.2975 36.7348C71.2975 37.2003 71.1126 37.6467 70.7835 37.9758C70.4544 38.3049 70.008 38.4898 69.5425 38.4898Z" fill="#FEF9D7"/>
</svg>
