<svg width="96" height="96" viewBox="0 0 96 96" fill="none" xmlns="http://www.w3.org/2000/svg">
<path d="M21.4766 81.2969H78.0401" stroke="#FEF9D7" stroke-width="3" stroke-linecap="round" stroke-linejoin="round"/>
<path d="M43.7269 28.7215C37.1104 28.4215 32.0779 24.847 32.2669 20.566C32.4559 16.285 37.7869 13.162 44.4004 13.4545C51.0139 13.747 56.0494 17.329 55.8589 21.61C55.6684 25.891 50.3434 29.014 43.7269 28.7215Z" stroke="#FEF9D7" stroke-width="3" stroke-linecap="round" stroke-linejoin="round"/>
<path d="M51.0009 44.2498C37.6929 43.7788 33.0909 39.6673 33.2214 35.9758C33.3219 33.1258 35.6859 28.4158 50.3754 28.9363C59.6259 29.2633 75.1104 30.8038 74.8749 37.4488C74.6469 43.7638 61.7634 44.6338 51.0009 44.2498Z" stroke="#FEF9D7" stroke-width="3" stroke-linecap="round" stroke-linejoin="round"/>
<path d="M48.4274 81.4025C26.8754 82.028 22.1984 76.8725 22.0694 72.437C21.7874 62.717 41.4194 62.1485 47.8694 61.961C68.6684 61.361 80.2184 64.412 80.3969 70.5575C80.5739 76.8575 68.9234 80.8085 48.4274 81.4025Z" stroke="#FEF9D7" stroke-width="3" stroke-linecap="round" stroke-linejoin="round"/>
<path d="M42.666 61.9198C26.8665 61.4548 18.9435 58.1833 19.116 52.1938C19.2885 46.2043 27.3915 43.4023 43.191 43.8658C62.1945 44.4238 73.4415 48.1318 73.275 53.7838C73.1085 59.4358 61.6695 62.4778 42.666 61.9198Z" stroke="#FEF9D7" stroke-width="3" stroke-linecap="round" stroke-linejoin="round"/>
</svg>
