<svg width="96" height="96" viewBox="0 0 96 96" fill="none" xmlns="http://www.w3.org/2000/svg">
<path d="M27.9453 42.209C27.7464 42.209 27.5556 42.13 27.415 41.9893C27.2743 41.8487 27.1953 41.6579 27.1953 41.459V27.959C27.1953 27.7601 27.2743 27.5693 27.415 27.4287C27.5556 27.288 27.7464 27.209 27.9453 27.209C28.1442 27.209 28.335 27.288 28.4756 27.4287C28.6163 27.5693 28.6953 27.7601 28.6953 27.959V41.459C28.6953 41.6579 28.6163 41.8487 28.4756 41.9893C28.335 42.13 28.1442 42.209 27.9453 42.209Z" fill="#FEF9D7" stroke="#FEF9D7" stroke-width="1.5"/>
<path d="M27.9453 54.659C27.7464 54.659 27.5556 54.58 27.415 54.4393C27.2743 54.2987 27.1953 54.1079 27.1953 53.909V41.459C27.1953 41.2601 27.2743 41.0693 27.415 40.9287C27.5556 40.788 27.7464 40.709 27.9453 40.709C28.1442 40.709 28.335 40.788 28.4756 40.9287C28.6163 41.0693 28.6953 41.2601 28.6953 41.459V53.909C28.6953 54.1079 28.6163 54.2987 28.4756 54.4393C28.335 54.58 28.1442 54.659 27.9453 54.659Z" fill="#FEF9D7" stroke="#FEF9D7" stroke-width="1.5"/>
<path d="M57.1222 66.916H38.4922C38.2933 66.916 38.1025 66.837 37.9619 66.6963C37.8212 66.5557 37.7422 66.3649 37.7422 66.166C37.7422 65.9671 37.8212 65.7763 37.9619 65.6357C38.1025 65.495 38.2933 65.416 38.4922 65.416H57.1222C57.3211 65.416 57.5119 65.495 57.6525 65.6357C57.7932 65.7763 57.8722 65.9671 57.8722 66.166C57.8722 66.3649 57.7932 66.5557 57.6525 66.6963C57.5119 66.837 57.3211 66.916 57.1222 66.916Z" fill="#FEF9D7" stroke="#FEF9D7" stroke-width="1.5"/>
<path d="M57.12 28.709H39.375C39.1761 28.709 38.9853 28.63 38.8447 28.4893C38.704 28.3487 38.625 28.1579 38.625 27.959C38.625 27.7601 38.704 27.5693 38.8447 27.4287C38.9853 27.288 39.1761 27.209 39.375 27.209H57.12C57.3189 27.209 57.5097 27.288 57.6503 27.4287C57.791 27.5693 57.87 27.7601 57.87 27.959C57.87 28.1579 57.791 28.3487 57.6503 28.4893C57.5097 28.63 57.3189 28.709 57.12 28.709Z" fill="#FEF9D7" stroke="#FEF9D7" stroke-width="1.5"/>
<path d="M67.9721 80.3995L67.961 80.3994L67.9499 80.3995C67.8229 80.4014 67.6976 80.371 67.5856 80.3113L57.0935 74.4806C57.093 74.4804 57.0926 74.4801 57.0921 74.4799C56.9757 74.4142 56.879 74.3185 56.812 74.2029C56.7448 74.0868 56.7099 73.9548 56.711 73.8206H56.711V73.8145V60.3145C56.711 60.1155 56.79 59.9248 56.9307 59.7841C57.0713 59.6435 57.2621 59.5645 57.461 59.5645C57.6599 59.5645 57.8507 59.6435 57.9913 59.7841C58.132 59.9248 58.211 60.1155 58.211 60.3145V72.9295V73.371L58.597 73.5852L67.597 78.5802L67.9615 78.7825L68.3258 78.5798L77.3258 73.5698L77.711 73.3553V72.9145V60.3145C77.711 60.1155 77.79 59.9248 77.9307 59.7841C78.0713 59.6435 78.2621 59.5645 78.461 59.5645C78.6599 59.5645 78.8507 59.6435 78.9913 59.7841C79.132 59.9248 79.211 60.1155 79.211 60.3145L79.211 73.8145L79.211 73.8206C79.2121 73.9548 79.1772 74.0868 79.1099 74.2029C79.0429 74.3185 78.9462 74.4142 78.8299 74.4799C78.8294 74.4801 78.829 74.4804 78.8285 74.4806L68.3364 80.3113C68.2244 80.371 68.0991 80.4014 67.9721 80.3995Z" fill="#FEF9D7" stroke="#FEF9D7" stroke-width="1.5"/>
<path d="M67.9609 80.4004C67.762 80.4004 67.5713 80.3214 67.4306 80.1807C67.29 80.0401 67.2109 79.8493 67.2109 79.6504V66.1504C67.2109 65.9515 67.29 65.7607 67.4306 65.6201C67.5713 65.4794 67.762 65.4004 67.9609 65.4004C68.1598 65.4004 68.3506 65.4794 68.4913 65.6201C68.6319 65.7607 68.7109 65.9515 68.7109 66.1504V79.6504C68.7109 79.8493 68.6319 80.0401 68.4913 80.1807C68.3506 80.3214 68.1598 80.4004 67.9609 80.4004Z" fill="#FEF9D7" stroke="#FEF9D7" stroke-width="1.5"/>
<path d="M67.5957 42.1125L67.5957 42.1125L67.5902 42.1094L57.0934 36.2762C57.093 36.276 57.0925 36.2757 57.0921 36.2755C56.9768 36.2104 56.8809 36.1159 56.8139 36.0017C56.7468 35.8872 56.7113 35.757 56.7109 35.6243V22.125C56.7109 21.9261 56.79 21.7353 56.9306 21.5947C57.0713 21.454 57.262 21.375 57.4609 21.375C57.6598 21.375 57.8506 21.454 57.9913 21.5947C58.1319 21.7353 58.2109 21.9261 58.2109 22.125V34.74V35.1809L58.5961 35.3953L67.5961 40.4053L67.9609 40.6084L68.3257 40.4053L77.3257 35.3953L77.7109 35.1809V34.74V22.125C77.7109 21.9261 77.79 21.7353 77.9306 21.5947C78.0713 21.454 78.262 21.375 78.4609 21.375C78.6598 21.375 78.8506 21.454 78.9913 21.5947C79.1319 21.7353 79.2109 21.9261 79.2109 22.125L79.2109 35.625L79.211 35.6312C79.2121 35.7654 79.1772 35.8974 79.1099 36.0135C79.0429 36.1291 78.9462 36.2247 78.8298 36.2904C78.8294 36.2907 78.8289 36.2909 78.8285 36.2912L68.3363 42.1218C68.2243 42.1816 68.099 42.212 67.9721 42.2101L67.9609 42.96L67.9632 42.21C67.8344 42.2096 67.7078 42.176 67.5957 42.1125Z" fill="#FEF9D7" stroke="#FEF9D7" stroke-width="1.5"/>
<path d="M67.9609 54.854C67.762 54.854 67.5713 54.775 67.4306 54.6343C67.29 54.4937 67.2109 54.3029 67.2109 54.104V41.459C67.2109 41.2601 67.29 41.0693 67.4306 40.9287C67.5713 40.788 67.762 40.709 67.9609 40.709C68.1598 40.709 68.3506 40.788 68.4913 40.9287C68.6319 41.0693 68.7109 41.2601 68.7109 41.459V54.104C68.7109 54.3029 68.6319 54.4937 68.4913 54.6343C68.3506 54.775 68.1598 54.854 67.9609 54.854Z" fill="#FEF9D7" stroke="#FEF9D7" stroke-width="1.5"/>
<path d="M27.9643 80.3997L27.9533 80.3994L27.9422 80.3995C27.8179 80.4001 27.6953 80.3698 27.5857 80.3113L17.0935 74.4806C17.093 74.4804 17.0926 74.4801 17.0921 74.4799C16.9757 74.4142 16.8791 74.3185 16.812 74.2029C16.7448 74.0868 16.7099 73.9548 16.711 73.8206H16.711V73.8145V60.3145C16.711 60.1155 16.79 59.9248 16.9307 59.7841C17.0713 59.6435 17.2621 59.5645 17.461 59.5645C17.6599 59.5645 17.8507 59.6435 17.9913 59.7841C18.132 59.9248 18.211 60.1155 18.211 60.3145V72.9295V73.371L18.597 73.5852L27.597 78.5802L27.9615 78.7825L28.3258 78.5798L37.3258 73.5698L37.711 73.3553V72.9145V60.3145C37.711 60.1155 37.79 59.9248 37.9307 59.7841C38.0713 59.6435 38.2621 59.5645 38.461 59.5645C38.6599 59.5645 38.8507 59.6435 38.9913 59.7841C39.132 59.9248 39.211 60.1155 39.211 60.3145L39.211 73.8145L39.211 73.8206C39.2121 73.9548 39.1772 74.0868 39.1099 74.2029C39.0429 74.3186 38.9462 74.4142 38.8298 74.4799C38.8294 74.4802 38.8289 74.4804 38.8285 74.4806L28.3361 80.3114C28.2219 80.3724 28.0938 80.4028 27.9643 80.3997Z" fill="#FEF9D7" stroke="#FEF9D7" stroke-width="1.5"/>
<path d="M27.9453 80.4004C27.7464 80.4004 27.5556 80.3214 27.415 80.1807C27.2743 80.0401 27.1953 79.8493 27.1953 79.6504V66.1504C27.1953 65.9515 27.2743 65.7607 27.415 65.6201C27.5556 65.4794 27.7464 65.4004 27.9453 65.4004C28.1442 65.4004 28.335 65.4794 28.4756 65.6201C28.6163 65.7607 28.6953 65.9515 28.6953 66.1504V79.6504C28.6953 79.8493 28.6163 80.0401 28.4756 80.1807C28.335 80.3214 28.1442 80.4004 27.9453 80.4004Z" fill="#FEF9D7" stroke="#FEF9D7" stroke-width="1.5"/>
<path d="M27.6065 42.1187L27.5984 42.114L27.5902 42.1094L17.0934 36.2762C17.093 36.276 17.0926 36.2757 17.0921 36.2755C16.9769 36.2104 16.8809 36.1159 16.8139 36.0017C16.7468 35.8872 16.7113 35.757 16.7109 35.6243V22.125C16.7109 21.9261 16.79 21.7353 16.9306 21.5947C17.0713 21.454 17.262 21.375 17.4609 21.375C17.6598 21.375 17.8506 21.454 17.9913 21.5947C18.1319 21.7353 18.2109 21.9261 18.2109 22.125V34.74V35.1809L18.5961 35.3953L27.5961 40.4053L27.9609 40.6084L28.3257 40.4053L37.3257 35.3953L37.7109 35.1809V34.74V22.125C37.7109 21.9261 37.79 21.7353 37.9306 21.5947C38.0713 21.454 38.262 21.375 38.4609 21.375C38.6599 21.375 38.8506 21.454 38.9913 21.5947C39.1319 21.7353 39.2109 21.9261 39.2109 22.125L39.2109 35.625L39.211 35.6312C39.2121 35.7654 39.1772 35.8974 39.1099 36.0135C39.0429 36.1291 38.9462 36.2247 38.8299 36.2904C38.8294 36.2907 38.8289 36.2909 38.8285 36.2912L28.336 42.122C28.2218 42.183 28.0938 42.2134 27.9643 42.2102L27.9459 42.96L27.9435 42.21C27.825 42.2104 27.7086 42.1789 27.6065 42.1187Z" fill="#FEF9D7" stroke="#FEF9D7" stroke-width="1.5"/>
<path d="M27.9453 40.934C27.7464 40.934 27.5556 40.855 27.415 40.7143C27.2743 40.5737 27.1953 40.3829 27.1953 40.184V27.959C27.1953 27.7601 27.2743 27.5693 27.415 27.4287C27.5556 27.288 27.7464 27.209 27.9453 27.209C28.1442 27.209 28.335 27.288 28.4756 27.4287C28.6163 27.5693 28.6953 27.7601 28.6953 27.959V40.184C28.6953 40.3829 28.6163 40.5737 28.4756 40.7143C28.335 40.855 28.1442 40.934 27.9453 40.934Z" fill="#FEF9D7" stroke="#FEF9D7" stroke-width="1.5"/>
<path d="M78.8784 22.7903L68.3855 28.6213C68.2667 28.6851 68.133 28.7156 67.9983 28.7098L67.9658 29.4591L67.9547 28.7092C67.8278 28.7111 67.7025 28.6807 67.5905 28.6209L57.0952 22.7885L57.0939 22.7878C56.9767 22.723 56.879 22.6279 56.811 22.5125C56.7429 22.3971 56.707 22.2656 56.707 22.1316C56.707 21.9976 56.7429 21.8661 56.811 21.7507C56.8789 21.6354 56.9765 21.5404 57.0935 21.4756C57.0937 21.4755 57.0938 21.4754 57.0939 21.4753L67.593 15.6859L67.5995 15.6823L67.6058 15.6786C67.7199 15.6128 67.8492 15.5781 67.9808 15.5781C68.1125 15.5781 68.2418 15.6128 68.3558 15.6786L68.3622 15.6823L68.3687 15.6859L78.8687 21.4759L78.8709 21.477C78.9881 21.5412 79.0861 21.6355 79.1547 21.7502C79.2232 21.865 79.2599 21.9959 79.2609 22.1295L79.2609 22.1303C79.262 22.2644 79.2271 22.3965 79.1598 22.5125C79.0928 22.6282 78.9961 22.7238 78.8797 22.7895C78.8793 22.7898 78.8788 22.79 78.8784 22.7903ZM60.2333 21.4853L59.066 22.1415L60.2354 22.794L67.6004 26.904L67.9644 27.1071L68.3291 26.9053L75.7541 22.7953L76.9352 22.1415L75.7561 21.484L68.3311 17.344L67.9644 17.1396L67.5983 17.3453L60.2333 21.4853Z" fill="#FEF9D7" stroke="#FEF9D7" stroke-width="1.5"/>
<path d="M27.946 67.6655C27.6934 67.6622 27.4457 67.5951 27.226 67.4705L16.726 61.6355C16.4921 61.504 16.2977 61.3122 16.1631 61.08C16.0286 60.8478 15.9588 60.5838 15.961 60.3155C15.9614 60.0497 16.0325 59.7888 16.1669 59.5595C16.3014 59.3302 16.4943 59.1407 16.726 59.0105L27.226 53.2205C27.454 53.0888 27.7127 53.0195 27.976 53.0195C28.2393 53.0195 28.498 53.0888 28.726 53.2205L39.226 59.0105C39.4605 59.1388 39.6564 59.3274 39.7936 59.5569C39.9307 59.7863 40.004 60.0482 40.006 60.3155C40.0082 60.5838 39.9384 60.8478 39.8038 61.08C39.6693 61.3122 39.4749 61.504 39.241 61.6355L28.741 67.4705C28.4978 67.6044 28.2235 67.6717 27.946 67.6655V67.6655ZM20.596 60.3305L27.961 64.5005L35.386 60.3905L27.961 56.2505L20.596 60.3305Z" fill="#FEF9D7"/>
<path d="M27.943 29.4591C27.6917 29.4603 27.4442 29.3985 27.223 29.2791L16.723 23.4441C16.4886 23.3144 16.2932 23.1242 16.1571 22.8934C16.021 22.6626 15.9492 22.3995 15.9492 22.1316C15.9492 21.8636 16.021 21.6006 16.1571 21.3698C16.2932 21.139 16.4886 20.9488 16.723 20.8191L27.223 15.0291C27.4511 14.8974 27.7097 14.8281 27.973 14.8281C28.2363 14.8281 28.495 14.8974 28.723 15.0291L39.223 20.8191C39.4575 20.9474 39.6535 21.136 39.7906 21.3654C39.9278 21.5949 40.0011 21.8568 40.003 22.1241C40.0053 22.3924 39.9354 22.6564 39.8009 22.8886C39.6663 23.1208 39.472 23.3126 39.238 23.4441L28.738 29.2791C28.4947 29.4113 28.2196 29.4736 27.943 29.4591ZM20.593 22.1391L27.958 26.2491L35.383 22.1391L27.958 17.9991L20.593 22.1391Z" fill="#FEF9D7"/>
<path d="M67.961 67.6655C67.7037 67.6615 67.4514 67.5946 67.226 67.4705L56.726 61.6355C56.4921 61.504 56.2977 61.3122 56.1631 61.08C56.0286 60.8478 55.9588 60.5838 55.961 60.3155C55.9614 60.0497 56.0325 59.7888 56.1669 59.5595C56.3014 59.3302 56.4943 59.1407 56.726 59.0105L67.226 53.2205C67.454 53.0888 67.7127 53.0195 67.976 53.0195C68.2393 53.0195 68.498 53.0888 68.726 53.2205L79.226 59.0105C79.4605 59.1388 79.6564 59.3274 79.7936 59.5569C79.9307 59.7863 80.004 60.0482 80.006 60.3155C80.0082 60.5838 79.9384 60.8478 79.8038 61.08C79.6693 61.3122 79.4749 61.504 79.241 61.6355L68.741 67.4705C68.5036 67.6053 68.2339 67.6727 67.961 67.6655ZM60.596 60.3305L67.961 64.5005L75.386 60.3905L67.961 56.2505L60.596 60.3305Z" fill="#FEF9D7"/>
<path d="M67.9609 42.1499C67.5631 42.1499 67.1816 41.9918 66.9003 41.7105C66.619 41.4292 66.4609 41.0477 66.4609 40.6499V28.0049C66.4609 27.6071 66.619 27.2255 66.9003 26.9442C67.1816 26.6629 67.5631 26.5049 67.9609 26.5049C68.3588 26.5049 68.7403 26.6629 69.0216 26.9442C69.3029 27.2255 69.4609 27.6071 69.4609 28.0049V40.6499C69.4609 41.0477 69.3029 41.4292 69.0216 41.7105C68.7403 41.9918 68.3588 42.1499 67.9609 42.1499Z" fill="#FEF9D7"/>
</svg>
