<svg width="32" height="32" viewBox="0 0 32 32" fill="none" xmlns="http://www.w3.org/2000/svg">
<path d="M11.5774 5.47982C11.434 5.04927 11.3543 4.60008 11.3407 4.14648C8.61276 5.11122 6.25035 6.89679 4.57788 9.25801C2.90542 11.6192 2.00492 14.4403 2.00006 17.3338C1.99357 19.5224 2.50578 21.6814 3.49473 23.6338L3.79473 24.2298L4.98606 23.6298L4.68473 23.0351C3.79072 21.268 3.32765 19.3143 3.33339 17.3338C3.33777 14.7537 4.12941 12.2364 5.60253 10.1182C7.07566 8.00002 9.16011 6.38182 11.5774 5.47982Z" fill="#F9EDEB"/>
<path d="M27.3076 23.0898L26.9742 23.6665C26.055 25.2618 24.7985 26.6373 23.2926 27.6967C21.7867 28.7562 20.0677 29.4741 18.2556 29.8004C16.4435 30.1267 14.582 30.0535 12.8012 29.5859C11.0203 29.1183 9.36296 28.2676 7.94492 27.0932C7.64335 27.4332 7.29338 27.727 6.90625 27.9652C8.46682 29.3032 10.3031 30.2808 12.2845 30.8284C14.2659 31.376 16.3436 31.4801 18.3697 31.1334C20.3959 30.7867 22.3208 29.9976 24.0074 28.8224C25.6939 27.6472 27.1007 26.1146 28.1276 24.3338L28.4609 23.7565L27.3076 23.0898Z" fill="#F9EDEB"/>
<path d="M4.45443 27.3337C6.29538 27.3337 7.78776 25.8413 7.78776 24.0003C7.78776 22.1594 6.29538 20.667 4.45443 20.667C2.61348 20.667 1.12109 22.1594 1.12109 24.0003C1.12109 25.8413 2.61348 27.3337 4.45443 27.3337Z" fill="#C5583F"/>
<path d="M28.6693 17.334C28.6669 18.0394 28.6061 18.7434 28.4873 19.4387C28.9321 19.5293 29.3613 19.6845 29.7613 19.8993C30.1418 17.8782 30.0717 15.7979 29.556 13.807C29.0402 11.816 28.0914 9.96341 26.7773 8.38128C25.4633 6.79914 23.8162 5.52647 21.9538 4.65402C20.0913 3.78157 18.0593 3.33085 16.0026 3.334H15.3359V4.66733H16.0026C19.3609 4.67104 22.5805 6.00675 24.9552 8.38141C27.3299 10.7561 28.6656 13.9757 28.6693 17.334Z" fill="#F9EDEB"/>
<path d="M27.5482 27.3337C29.3891 27.3337 30.8815 25.8413 30.8815 24.0003C30.8815 22.1594 29.3891 20.667 27.5482 20.667C25.7072 20.667 24.2148 22.1594 24.2148 24.0003C24.2148 25.8413 25.7072 27.3337 27.5482 27.3337Z" fill="#C5583F"/>
<path d="M16.0013 7.33366C17.8423 7.33366 19.3346 5.84127 19.3346 4.00033C19.3346 2.15938 17.8423 0.666992 16.0013 0.666992C14.1604 0.666992 12.668 2.15938 12.668 4.00033C12.668 5.84127 14.1604 7.33366 16.0013 7.33366Z" fill="#C5583F"/>
</svg>
